<?xml version="1.0" encoding="utf-8"?>
<!-- Generator: Adobe Illustrator 16.0.0, SVG Export Plug-In . SVG Version: 6.00 Build 0)  -->
<!DOCTYPE svg PUBLIC "-//W3C//DTD SVG 1.1//EN" "http://www.w3.org/Graphics/SVG/1.1/DTD/svg11.dtd">
<svg version="1.1" id="Layer_1" xmlns="http://www.w3.org/2000/svg" xmlns:xlink="http://www.w3.org/1999/xlink" x="0px" y="0px"
	 width="854px" height="379px" viewBox="0 0 854 379" style="enable-background:new 0 0 854 379;" xml:space="preserve">
<style type="text/css">
<![CDATA[
	.st0{fill:#020202;}
]]>
</style>
<path class="st0" d="M852.2,195.1c-0.5-9.5-1.1-19.3-4-28.4c-1.3-3.9-3.2-8.2-7.3-9.8c-5.5-2.3-11.4-3.4-17.1-4.7
	c-25-5.2-50.4-8.8-75.7-12.6c-40.7-5.9-81.5-10.9-122.1-16.9c-5.2-0.9-10.8-1.2-15.3-4.4c-8-5.4-13.5-13.5-18.8-21.4
	C580.4,79.3,571.3,60.3,561,42c-6.3-11.1-12.8-22.2-21.4-31.6c-3.7-3.8-7.9-7.4-13-8.8c-4.8-1.2-9.8-0.8-14.7-1.6h-27.5
	c-3.4,0.6-6.9,0.5-10.4,0.6c-59.7,1.7-119.4,5.8-179.1,8.8c-4.9,0.5-9.1,3.6-12.4,7.1c-7.4,8.2-12.3,18.3-17,28.2
	c-9.1,19.7-16,40.4-26.5,59.4c-4.1,6.8-8.6,14.4-16.1,17.9c-8.3,2.8-16.9,4-25.4,5.8c-56.4,10.5-113.2,18.5-169.6,28.7
	c-4.5,1-9.2,1.4-13.4,3.1c-5.9,3.2-8.2,10.2-10,16.3c-4.1,16.3-4.2,33.3-3.5,50.1c0.9,15.2,2.5,30.6,6.7,45.3c1.2,3.3,2,7,4.6,9.5
	c5.9,2.3,12.5,2.3,18.7,3.2c38.8,3.3,77.7,3.8,116.5,5c3.6-18.1,13.2-35,27.2-47.1c13.4-11.7,30.5-19.1,48.3-20.5
	c20.8-1.9,42.1,4.5,58.5,17.4c16.5,12.7,27.9,31.7,31.4,52.2c26.4-0.1,52.7,0.4,79.1,0.3c58.2,0,116.4-0.3,174.6-0.9
	c2.8-15.1,9.6-29.4,19.8-40.8c12.5-14.2,29.9-24,48.6-27.2c20-3.5,41.3,0.6,58.5,11.4c19.3,11.8,33.2,31.8,38,53.8
	c27.5-0.8,55-1.6,82.5-3.3c8.3-0.6,16.7-1.1,25-2.5c1.5-0.4,3.5-0.5,4.2-2.3c2.5-5.7,3.5-11.9,4.7-18
	C851.3,239.4,852.7,217.2,852.2,195.1z M9.8,229C9.6,223.9,9,218.9,9,213.8c0-1.3,1-2.1,1.5-3.1c2.2,3,1.8,6.8,2.1,10.3
	c0.2,5,0.9,10,0.6,15c-0.3,0.6-1,1.8-1.3,2.3C9.6,235.7,10,232.2,9.8,229z M17.1,271.1c-1-1.2-1.9-2.5-2-4.1
	c-0.8-4.7-1.5-9.4-2.3-14.1c-0.4-3-1.5-6.2,0.4-9c3.4,3.5,2.4,9,3.6,13.4C17,261.9,19.7,266.9,17.1,271.1z M253.6,121.2
	c4.7-5.5,8.1-11.8,11.2-18.3c8.6-18.2,14.8-37.4,23.8-55.4c3.4-6.3,6.9-12.7,12.2-17.6c2.7-2.6,6.2-4.7,10-4.7
	c29.7-1.5,59.3-3.6,89-5.1c0,33.7,0,67.4,0,101.1C351.2,121.2,302.4,121.3,253.6,121.2z M419,121.3c0-34,0-68,0-102
	c27.6-1.4,55.3-2.4,83-1.9c4.2,0.3,8.5,0.2,12.6,1.2c6.1,2,10.5,7,14.4,11.8c17.2,22.9,27.4,50.1,42.8,74.1c3.9,6.2,8.5,12,14,16.9
	C530.2,121.2,474.6,121.3,419,121.3z M832.2,185.7c-9.6,0.7-20.2-4.6-23.8-13.8c-2.3-5,1.6-10.7,6.7-11.8c5.9-1.6,12.3,0.2,17.5,3.1
	c4.9,2.9,9.4,7.6,9.7,13.6C842.1,182.1,837,185.5,832.2,185.7z"/>
<path class="st0" d="M298.9,280c-5.8-16.2-17.5-30.1-32.4-38.7c-13.6-8-29.9-11-45.5-9.1c-18.7,2.2-36.4,12-48.1,26.8
	c-11.8,14.5-17.5,33.6-15.9,52.1c1.2,15.2,7.4,29.9,17.3,41.4c11.4,13.5,28,22.6,45.6,24.9c18.1,2.6,37.2-1.9,52.1-12.5
	c12.3-8.6,21.8-21,26.9-35.1C304.7,313.9,304.7,295.9,298.9,280z M266.3,332.2c-8.4,11.3-22.3,18.3-36.3,18.1
	c-13.8,0.2-27.3-6.6-35.7-17.5c-8.4-10.6-11.7-25-8.5-38.1c3.7-16.5,17.3-30.3,33.8-34c10.6-2.5,22.1-1.1,31.7,4.1
	c12.8,6.7,22,19.9,23.8,34.2C276.7,310.7,273.4,322.9,266.3,332.2z"/>
<path class="st0" d="M715.8,271c-8.3-16-22.7-28.8-39.7-34.9c-12.2-4.6-25.7-5.5-38.5-3.3c-22.1,3.9-42,18.6-52.1,38.7
	c-7.8,15.1-10,32.9-6.3,49.5c3.5,16.1,12.8,31,25.7,41.2c12.4,10.1,28.2,15.7,44.2,16.1c16.2,0.3,32.5-4.8,45.5-14.5
	c12.8-9.5,22.4-23.3,26.7-38.7C726.3,307.1,724.4,287.4,715.8,271z M688.3,330.3c-8.5,12.8-24,20.7-39.4,19.9
	c-21-0.4-40.1-17.4-43-38.1c-2.1-12.3,1.3-25.3,9-35.1c6.3-8.2,15.5-14.1,25.6-16.4c11.7-2.8,24.4-0.6,34.5,5.8
	c11,6.9,18.8,18.6,20.7,31.5C697.5,309.1,694.8,321,688.3,330.3z"/>
</svg>
