<?xml version="1.0" encoding="utf-8"?>
<!-- Generator: Adobe Illustrator 16.0.0, SVG Export Plug-In . SVG Version: 6.00 Build 0)  -->
<!DOCTYPE svg PUBLIC "-//W3C//DTD SVG 1.1//EN" "http://www.w3.org/Graphics/SVG/1.1/DTD/svg11.dtd">
<svg version="1.1" id="Layer_1" xmlns="http://www.w3.org/2000/svg" xmlns:xlink="http://www.w3.org/1999/xlink" x="0px" y="0px"
	 width="248px" height="617.5px" viewBox="706.5 448 248 617.5" style="enable-background:new 706.5 448 248 617.5;"
	 xml:space="preserve">
<style type="text/css">
<![CDATA[
	.st0{fill:#020202;}
]]>
</style>
<path d="M825.6,448.7c10.4-1.5,21.4-0.9,31,3.7c15.5,7,27,22.1,29.4,38.9c2.2,13.6-1.4,28.1-9.8,39c-8.2,11-21.1,18.4-34.8,20
	c-12,1.5-24.5-1.4-34.6-8.1c-10.3-6.9-18.1-17.5-21.3-29.5c-3.4-13-1.7-27.4,5.1-39.1C798,460.7,811.1,451.3,825.6,448.7z"/>
<path d="M734.5,580.5c11.7-11.8,28.2-18.7,44.9-18.8c36.7,0,73.4,0,110.1,0c13.1,0.2,26.3,4.1,37,11.8c15,10.5,25.1,27.5,27.9,45.5
	v173.6c-1.5,7-6.9,13-13.8,15.3c-8,2.8-17.7,1.1-23.7-5c-4.5-4.2-6.5-10.4-6.5-16.4c0-48.2,0-96.4,0-144.6c-3.3,0-6.7,0-10,0
	c0,130.5,0,261.1,0,391.6c0,6.9-0.8,14.2-4.8,20.1c-3.6,5.9-9.7,9.9-16.3,11.8h-17.6c-8.8-2.3-16.6-8.8-19.7-17.5
	c-1.8-4.6-2.1-9.6-2.1-14.5c0-75.3,0-150.7,0-226c-3.3,0-6.7,0-10,0c0,77,0,154,0,231c-0.1,12.5-9.3,24-21.4,27h-17.5
	c-12.1-2.8-20.8-14.5-20.9-26.9c0-132.2,0-264.4,0-396.6c-3.5,0-7,0-10.5,0c0,48.5,0,97.1,0,145.7c-0.1,9.1-6.2,17.7-15,20.3
	c-11.8,4.1-26.6-2.6-29.2-15.3V618.1C717.5,604,724.2,590.5,734.5,580.5z"/>
</svg>
