<?xml version="1.0" encoding="utf-8"?>
<!-- Generator: Adobe Illustrator 16.0.0, SVG Export Plug-In . SVG Version: 6.00 Build 0)  -->
<!DOCTYPE svg PUBLIC "-//W3C//DTD SVG 1.1//EN" "http://www.w3.org/Graphics/SVG/1.1/DTD/svg11.dtd">
<svg version="1.1" id="Layer_1" xmlns="http://www.w3.org/2000/svg" xmlns:xlink="http://www.w3.org/1999/xlink" x="0px" y="0px"
	 width="418.3px" height="584.6px" viewBox="124.9 464.4 418.3 584.6" style="enable-background:new 124.9 464.4 418.3 584.6;"
	 xml:space="preserve">
<style type="text/css">
<![CDATA[
	.st0{fill:#020202;}
]]>
</style>
<path class="st0" d="M519.3,473.9c-21.8-3.7-43.9-5.2-66-6.6c-57-3.2-114-3.3-171.1-2.3c-37,1-74.1,2.4-111,6.4
	c-11.9,1.4-23.9,2.9-35.5,6.2c-3.4,1.2-7.5,2.1-9.6,5.4c-1.1,3.2-1,6.6-1.1,10c-0.1,11.4,0.1,22.7,0.8,34.1
	c2.4,43.7,6.3,87.3,10.2,130.8c8.4,88.2,17.9,176.3,29.1,264.2c3.8,29.1,7.7,58.2,12.7,87.1c1.4,7.8,2.8,15.6,4.9,23.2
	c0.7,2.3,1.4,5.1,3.9,6.1c5.5,2.6,11.5,3.4,17.5,4.5c25.4,3.8,51.1,4.8,76.7,6h95.8c27-1.4,54.3-2.4,80.9-7.7
	c5.6-1.3,11.4-2.6,16.4-5.5c4.4-2.5,5.2-7.9,6.6-12.3c5.1-19,8.2-38.4,11.5-57.8c11.5-71.6,20.5-143.5,29.1-215.5
	c8.5-73.8,16.6-147.7,22-221.8v-46.9C536.1,476.8,527.5,475.5,519.3,473.9z M177.2,488c35.2-4.2,70.6-5,106-5.9
	c58.3-1,116.8-0.7,175,2.9c13.6,0.9,27.3,1.9,40.8,4.1c4.2,0.8,8.8,1.3,12.2,4c-4.5,3.6-10.6,3.7-16.1,4.8
	c-35.5,4.5-71.3,5.3-107,6.3c-24.9,0.3-49.8,0.8-74.6,0.5c-41.3-0.5-82.8-1.3-124-5c-9-1-18-1.7-26.8-4c-1.8-0.4-3.4-1.4-4.8-2.6
	C163.6,489.3,170.7,489.2,177.2,488z M528.2,534c-1,33.1-4.3,66-7.5,98.9c-6.4,62.3-14.2,124.5-22.8,186.5
	c-6.8,47.9-13.8,95.9-22.7,143.5c-2.5,12.6-4.8,25.3-8.5,37.7c-1,2.8-1.7,5.9-3.7,8.2c-3.1,2.6-7,3.9-10.8,5
	c-8.4,2.3-17.1,3.6-25.8,4.7c-22.6,2.6-45.4,3.6-68.2,4.2c-34.4,0.8-68.7,0.2-103.1-1.8c-14.1-1-28.2-2-42.1-4.4
	c-4.3-0.8-8.8-1.6-12.8-3.5c-3.1-1.5-3.3-5.6-4.3-8.5c-5.1-21.6-8.2-43.6-11.7-65.6c-12.1-82-22-164.3-30.7-246.7
	c-3.8-37-7.4-74-10-111.2c-1.1-17.6-2.4-35.3-2.2-52.9c0.2-6.7-0.5-14,2.6-20.2c18,7.7,37.9,9.3,57.2,11.6c52.8,5,106,5.3,159,4.7
	c40.1-0.9,80.3-2.4,120.2-6.8c15.4-2,31.2-3.5,45.7-9.4C529.2,516.2,527.9,525.3,528.2,534z"/>
<path class="st0" d="M165.1,621.5c112.7,4.6,225.6,4.9,338.2,0c-6.1,67.6-13.9,135-22.3,202.4c-5.8,44.5-11.7,89-19.5,133.2
	c-2.2,11.5-4.1,23.1-7.9,34.2c-1.9,6.1-9.1,7.2-14.4,8.8c-23.6,5.3-48,6.1-72,7.2c-40.7,1.2-81.5,0.8-122.1-2.5
	c-10-1-20-1.9-29.7-4.6c-2-0.7-4.7-1.4-5.4-3.8c-2.2-7-3.1-14.3-4.4-21.5c-4.5-28.1-8-56.4-11.5-84.6
	c-6.4-52.7-12.2-105.5-17.9-158.3C172.4,695,168.3,658.3,165.1,621.5z"/>
</svg>
