<?xml version="1.0" encoding="utf-8"?>
<!-- Generator: Adobe Illustrator 16.0.0, SVG Export Plug-In . SVG Version: 6.00 Build 0)  -->
<!DOCTYPE svg PUBLIC "-//W3C//DTD SVG 1.1//EN" "http://www.w3.org/Graphics/SVG/1.1/DTD/svg11.dtd">
<svg version="1.1" id="Layer_1" xmlns="http://www.w3.org/2000/svg" xmlns:xlink="http://www.w3.org/1999/xlink" x="0px" y="0px"
	 width="419px" height="585px" viewBox="0 0 419 585" style="enable-background:new 0 0 419 585;" xml:space="preserve">
<style type="text/css">
<![CDATA[
	.st0{fill:#020202;}
]]>
</style>
<path class="st0" d="M395.1,9.9c-21.8-3.7-43.9-5.2-66-6.6C272.1,0.1,215,0,158,1c-37,1-74.1,2.4-111,6.4C35,8.9,23,10.3,11.5,13.6
	C8,14.8,3.9,15.8,1.9,19c-1.1,3.2-1,6.6-1.1,10C0.6,40.4,0.9,51.7,1.5,63.1c2.4,43.7,6.3,87.3,10.2,130.8
	c8.4,88.2,17.9,176.3,29.1,264.2c3.8,29.1,7.7,58.2,12.7,87.1c1.4,7.8,2.8,15.6,4.9,23.2c0.7,2.3,1.4,5.1,3.9,6.1
	c5.5,2.6,11.5,3.4,17.5,4.5c25.4,3.8,51.1,4.8,76.7,6h95.8c27-1.4,54.3-2.4,80.9-7.7c5.6-1.3,11.4-2.6,16.4-5.5
	c4.4-2.5,5.2-7.9,6.6-12.3c5.1-19,8.2-38.4,11.5-57.8c11.5-71.6,20.5-143.5,29.1-215.5c8.5-73.8,16.6-147.7,22-221.8V17.5
	C411.9,12.8,403.3,11.5,395.1,9.9z M53,24c35.2-4.2,70.6-5,106-6c58.3-1,116.8-0.7,175,2.9c13.6,0.9,27.3,1.9,40.8,4.1
	c4.2,0.8,8.8,1.3,12.2,4c-4.5,3.6-10.6,3.6-16.1,4.8c-35.5,4.5-71.3,5.3-107,6.3c-24.9,0.3-49.8,0.8-74.6,0.4
	c-41.3-0.5-82.8-1.3-124-5c-9-1-18-1.7-26.8-4c-1.8-0.4-3.4-1.4-4.8-2.6C39.4,25.3,46.5,25.2,53,24z M404,70
	c-1,33.1-4.3,66-7.5,98.9c-6.4,62.3-14.2,124.5-22.8,186.5c-6.8,47.9-13.8,95.9-22.7,143.5c-2.5,12.6-4.8,25.3-8.5,37.7
	c-1,2.8-1.7,5.9-3.7,8.2c-3.1,2.6-7,3.9-10.8,5c-8.4,2.3-17.1,3.6-25.8,4.7c-22.6,2.6-45.4,3.6-68.2,4.2
	c-34.4,0.8-68.7,0.2-103.1-1.8c-14.1-1-28.2-2-42.1-4.4c-4.3-0.8-8.8-1.6-12.8-3.5c-3.1-1.5-3.3-5.6-4.3-8.5
	c-5.1-21.6-8.2-43.6-11.7-65.6c-12.1-82-22-164.3-30.7-246.7c-3.8-37-7.4-74-10-111.2C18.3,99.3,17,81.7,17.2,64
	c0.2-6.7-0.5-14,2.6-20.2c18,7.7,37.9,9.3,57.2,11.6c52.8,5,106,5.3,159,4.6c40.1-0.9,80.3-2.4,120.2-6.8c15.4-2,31.2-3.5,45.7-9.4
	C405,52.2,403.7,61.3,404,70z"/>
<path class="st0" d="M40.9,157.5c112.7,4.6,225.6,4.9,338.2,0c-6.1,67.6-13.9,135-22.3,202.4c-5.8,44.5-11.7,89-19.5,133.2
	c-2.2,11.5-4.1,23.1-7.9,34.2c-1.9,6.1-9.1,7.2-14.4,8.8c-23.6,5.3-48,6.1-72,7.2c-40.7,1.2-81.5,0.8-122.1-2.5
	c-10-1-20-1.9-29.7-4.6c-2-0.7-4.7-1.4-5.4-3.8c-2.2-7-3.1-14.3-4.4-21.5c-4.5-28.1-8-56.4-11.5-84.6
	C63.5,373.4,57.7,320.6,52,267.8C48.2,231,44.1,194.3,40.9,157.5z"/>
</svg>
