<?xml version="1.0" encoding="utf-8"?>
<!-- Generator: Adobe Illustrator 16.0.0, SVG Export Plug-In . SVG Version: 6.00 Build 0)  -->
<!DOCTYPE svg PUBLIC "-//W3C//DTD SVG 1.1//EN" "http://www.w3.org/Graphics/SVG/1.1/DTD/svg11.dtd">
<svg version="1.1" id="Layer_1" xmlns="http://www.w3.org/2000/svg" xmlns:xlink="http://www.w3.org/1999/xlink" x="0px" y="0px"
	 width="316.3px" height="437.4px" viewBox="1136.1 356.1 316.3 437.4" style="enable-background:new 1136.1 356.1 316.3 437.4;"
	 xml:space="preserve">
<style type="text/css">
<![CDATA[
	.st0{fill:#020202;}
]]>
</style>
<path d="M1191.9,379.4c26.3-14.5,56.2-21.3,86-23.3c11,0,21.9-0.1,32.9,0c30.8,2.1,61.8,9.2,88.8,24.7c19.4,11.1,36.7,27.3,45.8,48
	c4.4,10.2,7.3,21.3,7,32.6c-0.1,6,0.2,12.1-0.9,18c-2.3,13.8-3.6,27.9-8.1,41.2c-4.8,14-13.6,26-22.7,37.4
	c-6.7,8.2-13.8,16.2-20.9,24c-6.8,7.6-14.3,14.8-19.6,23.6c-13.9,22.3-19.7,48.3-26.8,73.3c-35.6,0-71.2,0-106.8,0
	c-3.1-16.6-7.2-33.1-13.7-48.7c-4.8-11.3-11-22.3-20-30.8c-21.4-19.2-44-38.2-58.5-63.5c-10.3-17.9-15.2-38.3-17.6-58.6
	c-1.9-16.8,0.3-34.1,7.5-49.5C1154,406.8,1171.9,390.5,1191.9,379.4z"/>
<path d="M1246.4,687.9c36,0,72,0,108,0c0,7.2,0,14.3,0,21.5c-36,0-72,0-108,0C1246.4,702.3,1246.4,695.1,1246.4,687.9z"/>
<path d="M1246.4,718.4c36,0,72,0,108,0c0,6.3,0,12.7,0,19c-36,0-72,0-108,0C1246.4,731.1,1246.4,724.8,1246.4,718.4z"/>
<path d="M1246.4,765.4c0-7.1,0-14.2,0-21.2c36,0,72,0,108,0c0,7.1,0,14.2,0,21.2C1318.4,765.4,1282.4,765.4,1246.4,765.4z"/>
<path d="M1281.2,793.4c-11.3-7-22.6-14.1-33.9-21.2c36.2-0.2,72.5-0.1,108.7,0c-10.2,7.1-20.4,14.1-30.6,21.2H1281.2z"/>
</svg>
