<?xml version="1.0" encoding="UTF-8" ?>
<!DOCTYPE svg PUBLIC "-//W3C//DTD SVG 1.1//EN" "http://www.w3.org/Graphics/SVG/1.1/DTD/svg11.dtd">
<svg width="319pt" height="438pt" viewBox="0 0 319 438" version="1.1" xmlns="http://www.w3.org/2000/svg">
<path fill="#ffffff" d=" M 0.00 0.00 L 319.00 0.00 L 319.00 438.00 L 191.53 438.00 C 201.70 430.92 211.93 423.91 222.09 416.81 C 185.86 416.73 149.62 416.68 113.39 416.83 C 124.65 423.92 135.93 430.99 147.25 438.00 L 0.00 438.00 L 0.00 0.00 Z" />
<path fill="#000000" d=" M 58.01 23.93 C 84.27 9.39 114.21 2.62 143.99 0.67 C 154.95 0.66 165.91 0.59 176.87 0.67 C 207.67 2.78 238.70 9.88 265.65 25.38 C 285.08 36.49 302.32 52.68 311.47 73.40 C 315.87 83.64 318.73 94.74 318.42 105.96 C 318.36 111.98 318.66 118.05 317.54 124.00 C 315.23 137.80 313.91 151.88 309.40 165.20 C 304.65 179.16 295.84 191.24 286.70 202.63 C 279.97 210.86 272.94 218.82 265.79 226.68 C 258.98 234.29 251.53 241.43 246.21 250.23 C 232.35 272.55 226.54 298.52 219.41 323.50 C 183.82 323.51 148.22 323.48 112.62 323.52 C 109.49 306.94 105.45 290.43 98.89 274.85 C 94.05 263.57 87.92 252.54 78.90 244.05 C 57.46 224.87 34.87 205.84 20.36 180.57 C 10.10 162.69 5.20 142.29 2.79 121.97 C 0.93 105.21 3.13 87.84 10.34 72.51 C 20.04 51.41 37.92 35.05 58.01 23.93 Z" />
<path fill="#000000" d=" M 112.50 332.50 C 148.50 332.49 184.50 332.49 220.50 332.50 C 220.51 339.66 220.50 346.83 220.50 353.99 C 184.50 354.01 148.50 354.01 112.50 353.99 C 112.50 346.83 112.49 339.66 112.50 332.50 Z" />
<path fill="#000000" d=" M 112.49 363.02 C 148.50 362.99 184.50 362.99 220.51 363.02 C 220.49 369.34 220.50 375.67 220.50 381.99 C 184.50 382.00 148.50 382.01 112.49 381.98 C 112.50 375.66 112.51 369.34 112.49 363.02 Z" />
<path fill="#000000" d=" M 112.49 409.98 C 112.51 402.90 112.48 395.83 112.50 388.75 C 148.50 388.75 184.50 388.75 220.50 388.75 C 220.51 395.83 220.49 402.91 220.51 409.99 C 184.50 410.00 148.49 410.01 112.49 409.98 Z" />
<path fill="#000000" d=" M 147.25 438.00 C 135.93 430.99 124.65 423.92 113.39 416.83 C 149.62 416.68 185.86 416.73 222.09 416.81 C 211.93 423.91 201.70 430.92 191.53 438.00 L 147.25 438.00 Z" />
</svg>
