<?xml version="1.0" encoding="UTF-8" ?>
<!DOCTYPE svg PUBLIC "-//W3C//DTD SVG 1.1//EN" "http://www.w3.org/Graphics/SVG/1.1/DTD/svg11.dtd">
<svg width="239pt" height="618pt" viewBox="0 0 239 618" version="1.1" xmlns="http://www.w3.org/2000/svg">
<path fill="#ffffff" d=" M 0.00 0.00 L 239.00 0.00 L 239.00 171.59 C 236.15 153.55 226.09 136.57 211.06 126.06 C 200.33 118.39 187.18 114.44 174.04 114.26 C 137.32 114.23 100.61 114.27 63.90 114.24 C 47.26 114.38 30.78 121.25 19.04 133.05 C 8.81 143.05 2.07 156.49 0.00 170.62 L 0.00 0.00 Z" />
<path fill="#000000" d=" M 110.21 1.18 C 120.63 -0.28 131.61 0.31 141.23 4.92 C 156.71 11.88 168.21 26.98 170.64 43.81 C 172.82 57.44 169.24 71.91 160.81 82.86 C 152.58 93.87 139.68 101.26 126.03 102.81 C 114.01 104.30 101.48 101.38 91.39 94.67 C 81.07 87.80 73.27 77.16 70.11 65.14 C 66.72 52.12 68.37 37.74 75.17 26.06 C 82.55 13.23 95.63 3.85 110.21 1.18 Z" />
<path fill="#000000" d=" M 19.04 133.05 C 30.78 121.25 47.26 114.38 63.90 114.24 C 100.61 114.27 137.32 114.23 174.04 114.26 C 187.18 114.44 200.33 118.39 211.06 126.06 C 226.09 136.57 236.15 153.55 239.00 171.59 L 239.00 345.14 C 237.47 352.16 232.08 358.18 225.25 360.41 C 217.26 363.23 207.58 361.55 201.54 355.46 C 197.06 351.30 195.01 345.07 195.00 339.07 C 195.00 290.88 195.01 242.69 194.99 194.50 C 191.66 194.50 188.33 194.50 185.00 194.50 C 184.99 325.05 185.01 455.59 184.99 586.14 C 184.97 593.06 184.14 600.32 180.20 606.21 C 176.57 612.10 170.47 616.09 163.90 618.00 L 146.34 618.00 C 137.51 615.73 129.72 609.21 126.64 600.54 C 124.84 595.93 124.57 590.94 124.50 586.05 C 124.49 510.70 124.50 435.35 124.49 360.00 C 121.16 360.00 117.83 360.00 114.50 360.00 C 114.50 436.99 114.50 513.97 114.50 590.96 C 114.40 603.46 105.24 614.98 93.12 618.00 L 75.67 618.00 C 63.55 615.16 54.88 603.45 54.76 591.14 C 54.73 458.93 54.77 326.72 54.74 194.50 C 51.24 194.50 47.75 194.50 44.25 194.50 C 44.24 243.05 44.26 291.60 44.24 340.15 C 44.18 349.23 38.02 357.89 29.21 360.41 C 17.45 364.54 2.59 357.77 0.00 345.09 L 0.00 170.62 C 2.07 156.49 8.81 143.05 19.04 133.05 Z" />
<path fill="#ffffff" d=" M 44.25 194.50 C 47.75 194.50 51.24 194.50 54.74 194.50 C 54.77 326.72 54.73 458.93 54.76 591.14 C 54.88 603.45 63.55 615.16 75.67 618.00 L 0.00 618.00 L 0.00 345.09 C 2.59 357.77 17.45 364.54 29.21 360.41 C 38.02 357.89 44.18 349.23 44.24 340.15 C 44.26 291.60 44.24 243.05 44.25 194.50 Z" />
<path fill="#ffffff" d=" M 185.00 194.50 C 188.33 194.50 191.66 194.50 194.99 194.50 C 195.01 242.69 195.00 290.88 195.00 339.07 C 195.01 345.07 197.06 351.30 201.54 355.46 C 207.58 361.55 217.26 363.23 225.25 360.41 C 232.08 358.18 237.47 352.16 239.00 345.14 L 239.00 618.00 L 163.90 618.00 C 170.47 616.09 176.57 612.10 180.20 606.21 C 184.14 600.32 184.97 593.06 184.99 586.14 C 185.01 455.59 184.99 325.05 185.00 194.50 Z" />
<path fill="#ffffff" d=" M 114.50 360.00 C 117.83 360.00 121.16 360.00 124.49 360.00 C 124.50 435.35 124.49 510.70 124.50 586.05 C 124.57 590.94 124.84 595.93 126.64 600.54 C 129.72 609.21 137.51 615.73 146.34 618.00 L 93.12 618.00 C 105.24 614.98 114.40 603.46 114.50 590.96 C 114.50 513.97 114.50 436.99 114.50 360.00 Z" />
</svg>
